<?xml version="1.0" encoding="UTF-8"?>
<svg xmlns="http://www.w3.org/2000/svg" width="720" height="280" viewBox="0 0 720 280">
  <rect width="100%" height="100%" fill="#f8fafc"/>
  <text x="56" y="24" font-family="system-ui,sans-serif" font-size="14" font-weight="700" fill="#0f172a">Export time by exhibit volume (ms)</text>
  <line x1="56" y1="224" x2="696" y2="224" stroke="#cbd5e1"/>
  
      <rect x="64" y="217.20615384615385" width="90.66666666666667" height="6.793846153846155" fill="#2563eb" rx="4"/>
      <text x="109.33333333333334" y="252" text-anchor="middle" font-size="11" fill="#64748b">1×</text>
      <text x="109.33333333333334" y="211.20615384615385" text-anchor="middle" font-size="10" fill="#0f172a">60ms</text>
    
      <rect x="170.66666666666669" y="214.26215384615384" width="90.66666666666667" height="9.737846153846153" fill="#2563eb" rx="4"/>
      <text x="216.00000000000003" y="252" text-anchor="middle" font-size="11" fill="#64748b">5×</text>
      <text x="216.00000000000003" y="208.26215384615384" text-anchor="middle" font-size="10" fill="#0f172a">86ms</text>
    
      <rect x="277.33333333333337" y="209.28" width="90.66666666666667" height="14.72" fill="#2563eb" rx="4"/>
      <text x="322.6666666666667" y="252" text-anchor="middle" font-size="11" fill="#64748b">10×</text>
      <text x="322.6666666666667" y="203.28" text-anchor="middle" font-size="10" fill="#0f172a">130ms</text>
    
      <rect x="384" y="184.9353846153846" width="90.66666666666667" height="39.06461538461539" fill="#2563eb" rx="4"/>
      <text x="429.3333333333333" y="252" text-anchor="middle" font-size="11" fill="#64748b">25×</text>
      <text x="429.3333333333333" y="178.9353846153846" text-anchor="middle" font-size="10" fill="#0f172a">345ms</text>
    
      <rect x="490.6666666666667" y="138.2843076923077" width="90.66666666666667" height="85.71569230769231" fill="#2563eb" rx="4"/>
      <text x="536" y="252" text-anchor="middle" font-size="11" fill="#64748b">50×</text>
      <text x="536" y="132.2843076923077" text-anchor="middle" font-size="10" fill="#0f172a">757ms</text>
    
      <rect x="597.3333333333334" y="40" width="90.66666666666667" height="184" fill="#2563eb" rx="4"/>
      <text x="642.6666666666667" y="252" text-anchor="middle" font-size="11" fill="#64748b">75×</text>
      <text x="642.6666666666667" y="34" text-anchor="middle" font-size="10" fill="#0f172a">1625ms</text>
    
  <text x="360" y="272" text-anchor="middle" font-size="11" fill="#64748b">Exhibits in package (includes multipage conversations)</text>
</svg>